<svg xmlns="http://www.w3.org/2000/svg" width="265.577" height="265.577" data-name="chicago bulls 1" viewBox="0 0 265.577 265.577"><path fill="#fff" fill-rule="evenodd" d="M0,0H265.577V265.577H0Z" data-name="Path 3593"/><path fill="#fff" fill-rule="evenodd" stroke="#000" stroke-linecap="round" stroke-linejoin="round" stroke-miterlimit="2.613" stroke-width="6.768" d="M83.289,94.869c-9.2.576-23.95.769-32.572,0C39.988,93.908,28.3,83.146,27.534,72c-.767-10.955,1.724-21.139,2.3-31.325-9.2,14.223-23.757,43.24-14.56,61.5,9.771,19.219,33.53,24.6,58.82,25.944,3.066-11.146,6.131-22.293,9.2-33.246Zm89.673,0c9.2.576,23.951.769,32.574,0,10.729-.962,22.417-11.722,23.183-22.87.767-10.955-1.725-21.139-2.3-31.325,9.2,14.222,23.759,43.24,14.562,61.5-9.773,19.219-33.53,24.6-58.82,25.944-3.067-11.146-6.131-22.293-9.2-33.246Z" data-name="Path 3594" transform="translate(4.662 15.366)"/><path fill="#fff" fill-rule="evenodd" stroke="#000" stroke-linecap="round" stroke-linejoin="round" stroke-miterlimit="2.613" stroke-width="6.768" d="M148.532,226.833c10.154-7.688,13.8-18.834,13.411-30.174-1.725-2.3-3.832-3.843-5.557-6.149,9.2-19.986,23.376-38.821,27.782-59.576,13.987,5,33.53,4.613,43.3-7.88-13.221-7.88-29.314-9.031-45.218-11.338-2.874-10.57-5.555-21.139-8.238-31.71H75.151c-2.683,10.569-5.365,21.139-8.239,31.71-15.9,2.306-32,3.458-45.218,11.338,9.771,12.491,29.315,12.877,43.3,7.88C69.4,151.69,83.58,170.525,92.777,190.511c-1.724,2.306-3.832,3.845-5.555,6.149-.383,11.339,3.256,22.485,13.411,30.174a64.491,64.491,0,0,0,47.9,0Z" data-name="Path 3595" transform="translate(8.196 30.226)"/><path fill-rule="evenodd" d="M41.487,2.834h7.345l6.886,6.907v6.447h-7.8l.459-6.447H42.406V32.918h5.967l-.459-7.367h7.8v7.367l-6.886,6.907H41.487L34.6,32.918V9.741ZM68.407,39.825H60.6V2.834h7.805V17.262h5.2V2.834h7.8V39.825h-7.8V24.169h-5.2Zm27.378,0h-7.8V2.834h7.8ZM107.709,2.834h7.345l6.886,6.907v6.447h-7.805l.46-6.447h-5.969V32.918h5.969l-.46-7.367h7.805v7.367l-6.886,6.907h-7.345l-6.886-6.907V9.741Zm36.56,0,5.865,36.989h-7.651l-.97-7.674h-6.63l-.969,7.674h-7.652l5.867-36.989h12.14Zm-6.529,6.907L135.7,25.7h5L138.659,9.741h-.92Zm16.718,23.177V9.843l6.886-7.009h7.345l6.886,7.009v5.424h-7.8l.459-5.424h-5.967V32.918h5.508V26.881l-2.754.462V20.536h10.558V32.918l-6.886,6.907h-7.345l-6.886-6.907ZM188.262,9.741V32.918h5.508V9.741Zm-.918,30.084-6.886-6.907V9.741l6.886-6.907h7.345l6.886,6.907V32.918l-6.886,6.907h-7.345Z" data-name="Path 3596" transform="translate(13.072 1.071)"/><path fill="none" stroke="#000" stroke-miterlimit="2.613" stroke-width="5.182" d="M41.487,2.834h7.345l6.886,6.907v6.447H47.913l.459-6.447H42.4V32.918h5.969l-.459-7.367h7.805v7.367l-6.886,6.907H41.487L34.6,32.918V9.741ZM68.408,39.825H60.6V2.834h7.805V17.262h5.2V2.834h7.8V39.823h-7.8V24.169h-5.2Zm27.378,0h-7.8V2.834h7.8ZM107.709,2.834h7.345l6.888,6.907v6.447h-7.805l.459-6.447h-5.969V32.918H114.6l-.459-7.367h7.805v7.367l-6.888,6.907h-7.345l-6.886-6.907V9.741l6.886-6.907Zm36.56,0,5.865,36.989h-7.651l-.97-7.674h-6.63l-.969,7.674h-7.652l5.867-36.989Zm-6.529,6.907L135.7,25.7h5L138.66,9.741h-.92Zm16.718,23.177V9.843l6.886-7.009h7.345l6.886,7.009v5.424h-7.8l.459-5.424h-5.967V32.918h5.508V26.881l-2.754.46v-6.8h10.558V32.917l-6.886,6.907h-7.345l-6.886-6.905ZM188.263,9.741V32.918h5.508V9.741Zm-.918,30.084-6.886-6.907V9.741l6.886-6.907h7.345l6.886,6.907V32.918l-6.886,6.907h-7.345Z" data-name="Path 3597" transform="translate(13.072 1.071)"/><path fill-rule="evenodd" d="M60.426,52.426l4.948-.46v-7.06H60.426Zm0,5.986v9.671h5.2V58.872Zm-7.8,16.576V38H66.394l6.784,6.907v7.06l-3.214,3.121,3.775,3.786v9.211L66.751,74.99H52.622Zm33.092,0-6.888-6.907V38h7.805V68.082h5.2V38h7.8V68.082l-6.886,6.907Zm18.961,0V38h7.8V68.542l9.182-.46v6.907Zm21.819,0V38h7.8V68.542l9.182-.46v6.907ZM163.207,38l6.886,6.907v4.758h-7.805l.46-4.758H156.78v7.827h6.427l6.886,6.908v8.44l-6.886,6.907h-7.345l-6.886-6.907v-4.6h7.8l-.459,4.6h5.967v-8.44h-6.426l-6.886-6.908V44.906L155.862,38h7.345Z" data-name="Path 3598" transform="translate(19.88 14.356)"/><path fill="none" stroke="#000" stroke-miterlimit="2.613" stroke-width="5.182" d="M60.426,52.427l4.948-.46v-7.06H60.426Zm0,5.985v9.671h5.2V58.872Zm-7.8,16.576V38H66.394l6.784,6.907v7.06l-3.214,3.121,3.775,3.786v9.211L66.751,74.99H52.622Zm33.092,0-6.888-6.907V38h7.805V68.082h5.2V38h7.8V68.082l-6.886,6.907Zm18.961,0V38h7.805V68.542l9.182-.46v6.907Zm21.819,0V38h7.8V68.542l9.182-.46v6.907ZM163.207,38l6.886,6.907v4.758h-7.805l.46-4.758H156.78v7.827h6.427l6.886,6.907v8.442l-6.886,6.907h-7.345l-6.886-6.907v-4.6h7.8l-.459,4.6h5.967V59.64h-6.426l-6.886-6.907V44.906L155.862,38h7.345Z" data-name="Path 3599" transform="translate(19.88 14.356)"/><path fill-rule="evenodd" d="M41.487,2.834h7.345l6.886,6.907v6.447h-7.8l.459-6.447H42.406V32.918h5.967l-.459-7.367h7.8v7.367l-6.886,6.907H41.487L34.6,32.918V9.741ZM68.407,39.825H60.6V2.834h7.805V17.262h5.2V2.834h7.8V39.825h-7.8V24.169h-5.2Zm27.378,0h-7.8V2.834h7.8ZM107.709,2.834h7.345l6.886,6.907v6.447h-7.805l.46-6.447h-5.969V32.918h5.969l-.46-7.367h7.805v7.367l-6.886,6.907h-7.345l-6.886-6.907V9.741Zm36.56,0,5.865,36.989h-7.651l-.97-7.674h-6.63l-.969,7.674h-7.652l5.867-36.989h12.14Zm-6.529,6.907L135.7,25.7h5L138.659,9.741h-.92Zm16.718,23.177V9.843l6.886-7.009h7.345l6.886,7.009v5.424h-7.8l.459-5.424h-5.967V32.918h5.508V26.881l-2.754.462V20.536h10.558V32.918l-6.886,6.907h-7.345l-6.886-6.907ZM188.262,9.741V32.918h5.508V9.741Zm-.918,30.084-6.886-6.907V9.741l6.886-6.907h7.345l6.886,6.907V32.918l-6.886,6.907h-7.345Z" data-name="Path 3600" transform="translate(13.072 1.071)"/><path fill="none" stroke="#fff" stroke-miterlimit="2.613" stroke-width="2.591" d="M41.487,2.834h7.345l6.886,6.907v6.447H47.913l.459-6.447H42.4V32.917h5.969l-.459-7.367h7.805v7.367l-6.886,6.907H41.487L34.6,32.917V9.741ZM68.408,39.825H60.6V2.834h7.805V17.262h5.2V2.834h7.8V39.823h-7.8V24.169h-5.2Zm27.378,0h-7.8V2.834h7.8ZM107.709,2.834h7.345l6.888,6.907v6.447h-7.805l.459-6.447h-5.969V32.917H114.6l-.459-7.367h7.805v7.367l-6.888,6.907h-7.345l-6.886-6.907V9.741l6.886-6.907Zm36.56,0,5.865,36.989h-7.651l-.97-7.674h-6.63l-.969,7.674h-7.651l5.865-36.989h12.14Zm-6.529,6.907L135.7,25.7h5L138.66,9.741h-.92Zm16.718,23.176V9.843l6.886-7.009h7.345l6.886,7.009v5.423h-7.8l.459-5.423h-5.967V32.917h5.508V26.879l-2.754.46v-6.8h10.558V32.915l-6.886,6.907h-7.345l-6.886-6.905ZM188.263,9.741V32.917h5.508V9.741Zm-.918,30.084-6.886-6.907V9.741l6.886-6.907h7.345l6.886,6.907V32.917l-6.886,6.907h-7.345Z" data-name="Path 3601" transform="translate(13.072 1.071)"/><path fill-rule="evenodd" d="M60.426,52.426l4.948-.46v-7.06H60.426Zm0,5.986v9.671h5.2V58.872Zm-7.8,16.576V38H66.394l6.784,6.907v7.06l-3.214,3.121,3.775,3.786v9.211L66.751,74.99H52.622Zm33.092,0-6.888-6.907V38h7.805V68.082h5.2V38h7.8V68.082l-6.886,6.907Zm18.961,0V38h7.8V68.542l9.182-.46v6.907Zm21.819,0V38h7.8V68.542l9.182-.46v6.907ZM163.207,38l6.886,6.907v4.758h-7.805l.46-4.758H156.78v7.827h6.427l6.886,6.908v8.44l-6.886,6.907h-7.345l-6.886-6.907v-4.6h7.8l-.459,4.6h5.967v-8.44h-6.426l-6.886-6.908V44.906L155.862,38h7.345Z" data-name="Path 3602" transform="translate(19.88 14.356)"/><path fill="none" stroke="#fff" stroke-miterlimit="2.613" stroke-width="2.591" d="M60.426,52.426l4.948-.46V44.9H60.426Zm0,5.986v9.671h5.2V58.872Zm-7.8,16.576V38H66.394l6.784,6.907v7.061l-3.213,3.121,3.774,3.786v9.211l-6.988,6.907H52.622v0Zm33.092,0-6.888-6.907V38h7.805V68.082h5.2V38h7.8V68.082l-6.886,6.907Zm18.961,0V38h7.805V68.542l9.182-.46v6.907Zm21.819,0V38h7.8V68.542l9.182-.46v6.907ZM163.207,38l6.886,6.907v4.759h-7.805l.46-4.759H156.78v7.827h6.427l6.886,6.908v8.442l-6.886,6.907h-7.345l-6.886-6.907v-4.6h7.8l-.459,4.6h5.967V59.641h-6.426l-6.886-6.908V44.906L155.862,38h7.345Z" data-name="Path 3603" transform="translate(19.88 14.356)"/><path fill="#492424" fill-rule="evenodd" d="M41.487,2.834h7.345l6.886,6.907v6.447h-7.8l.459-6.447H42.406V32.918h5.967l-.459-7.367h7.8v7.367l-6.886,6.907H41.487L34.6,32.918V9.741ZM68.407,39.825H60.6V2.834h7.805V17.262h5.2V2.834h7.8V39.825h-7.8V24.169h-5.2Zm27.378,0h-7.8V2.834h7.8ZM107.709,2.834h7.345l6.886,6.907v6.447h-7.805l.46-6.447h-5.969V32.918h5.969l-.46-7.367h7.805v7.367l-6.886,6.907h-7.345l-6.886-6.907V9.741Zm36.56,0,5.865,36.989h-7.651l-.97-7.674h-6.63l-.969,7.674h-7.652l5.867-36.989h12.14Zm-6.529,6.907L135.7,25.7h5L138.659,9.741h-.92Zm16.718,23.177V9.843l6.886-7.009h7.345l6.886,7.009v5.424h-7.8l.459-5.424h-5.967V32.918h5.508V26.881l-2.754.462V20.536h10.558V32.918l-6.886,6.907h-7.345l-6.886-6.907ZM188.262,9.741V32.918h5.508V9.741Zm-.918,30.084-6.886-6.907V9.741l6.886-6.907h7.345l6.886,6.907V32.918l-6.886,6.907h-7.345ZM67.234,65.711l4.948-.46v-7.06H67.234Zm0,5.986v9.671h5.2V72.157Zm-7.8,16.576V51.284H73.2l6.784,6.907v7.06l-3.214,3.121,3.775,3.786v9.211l-6.988,6.907H59.43Zm33.092,0-6.888-6.907V51.284h7.805V81.366h5.2V51.284h7.8V81.366l-6.886,6.907Zm18.961,0V51.284h7.8V81.827l9.182-.46v6.907Zm21.819,0V51.284h7.8V81.827l9.182-.46v6.907Zm36.714-36.989,6.886,6.907v4.757H169.1l.46-4.757h-5.969v7.827h6.427l6.886,6.908v8.44l-6.886,6.907H162.67l-6.886-6.907v-4.6h7.8l-.459,4.6H169.1v-8.44H162.67l-6.886-6.908V58.191l6.886-6.907h7.345Z" data-name="Path 3604" transform="translate(13.072 1.071)"/><path fill="#fff" fill-rule="evenodd" stroke="#000" stroke-linecap="round" stroke-linejoin="round" stroke-miterlimit="2.613" stroke-width="2.225" d="M83.289,94.869c-9.2.576-23.95.769-32.572,0C39.988,93.908,28.3,83.146,27.534,72c-.767-10.955,1.724-21.139,2.3-31.325-9.2,14.223-23.757,43.24-14.56,61.5,9.771,19.219,33.53,24.6,58.82,25.944,3.066-11.146,6.131-22.293,9.2-33.246Zm89.673,0c9.2.576,23.951.769,32.574,0,10.729-.962,22.417-11.722,23.183-22.87.767-10.955-1.725-21.139-2.3-31.325,9.2,14.222,23.759,43.24,14.562,61.5-9.773,19.219-33.53,24.6-58.82,25.944-3.067-11.146-6.131-22.293-9.2-33.246Z" data-name="Path 3605" transform="translate(4.662 15.366)"/><path fill="#cc2229" fill-rule="evenodd" stroke="#000" stroke-linecap="round" stroke-linejoin="round" stroke-miterlimit="2.613" stroke-width="1.728" d="M28.736,78.341A18.821,18.821,0,0,1,27.2,72c-.193-10.955,1.724-21.139,2.3-31.325-5.748,8.84-13.413,23.637-16.287,37.859l7.09-5.189Zm198.119,0A18.82,18.82,0,0,0,228.387,72c.192-10.955-1.725-21.139-2.3-31.325,5.748,8.84,13.411,23.637,16.285,37.859l-7.09-5.189Z" data-name="Path 3606" transform="translate(4.992 15.366)"/><path fill="#cc2229" fill-rule="evenodd" stroke="#000" stroke-linecap="round" stroke-linejoin="round" stroke-miterlimit="2.613" stroke-width="2.225" d="M148.532,226.833c10.154-7.688,13.8-18.834,13.411-30.174-1.725-2.3-3.832-3.843-5.557-6.149,9.2-19.986,23.376-38.821,27.782-59.576,13.987,5,33.53,4.613,43.3-7.88-13.221-7.88-29.314-9.031-45.218-11.338-2.874-10.57-5.555-21.139-8.238-31.71H75.151c-2.683,10.569-5.365,21.139-8.239,31.71-15.9,2.306-32,3.458-45.218,11.338,9.771,12.491,29.315,12.877,43.3,7.88C69.4,151.69,83.58,170.525,92.777,190.511c-1.724,2.306-3.832,3.845-5.555,6.149-.383,11.339,3.256,22.485,13.411,30.174a64.491,64.491,0,0,0,47.9,0Z" data-name="Path 3607" transform="translate(8.196 30.226)"/><path fill="none" stroke="#000" stroke-linecap="round" stroke-linejoin="round" stroke-miterlimit="2.613" stroke-width="1.44" d="M79.517,183.931c5.174-14.6,3.449-32.093-1.916-46.314-1.149,9.034-9.387,12.877-16.094,12.491m80.927,33.823c-5.174-14.6-3.449-32.093,1.917-46.314,1.149,9.034,9.388,12.877,16.1,12.491M76.9,137.6c-4.791,5.958-10.154,7.494-19.16,5.958m87.317-5.958c4.791,5.958,10.156,7.494,19.16,5.958m-77.554,4.2c.766,13.258,10.922,22.293,24.908,24.4m23.759-24.4c-.767,13.258-10.922,22.293-24.909,24.4m29.292-56.051c-8.622,2.306-17.627,3.075-28.739,3.075s-20.118-.77-28.739-3.075m57.479-9.792c-8.622,2.306-17.627,3.075-28.739,3.075s-20.118-.77-28.739-3.075m57.479-9.792c-8.622,2.305-17.627,3.074-28.739,3.074s-20.118-.77-28.739-3.074" data-name="Path 3608" transform="translate(21.812 36.466)"/><path fill-rule="evenodd" d="M111.8,93.96c-.383,8.841-.958,17.873-1.533,26.905-1.916,10.186-8.238,15.759-17.244,15.373-10.537-3.075-17.819-12.3-26.824-18.45-2.874-1.536-6.706-2.691-10.537-1.536-.192,1.922-.192,3.843-.575,5.955,12.645,4.613,21.651,19.41,36.787,21.141,7.856,1.536,16.861-1.73,19.927-7.494Z" data-name="Path 3609" transform="translate(20.81 35.497)"/><path fill-rule="evenodd" d="M96.247,93.96c.383,8.841.958,17.873,1.533,26.905,1.917,10.186,8.238,15.759,17.244,15.373,10.537-3.075,17.819-12.3,26.824-18.45,2.874-1.536,6.706-2.691,10.537-1.536.192,1.922.192,3.843.575,5.955-12.645,4.613-21.651,19.41-36.787,21.141-7.855,1.536-16.86-1.73-19.926-7.494V93.96h0Z" data-name="Path 3610" transform="translate(36.361 35.497)"/><path fill="#fff" fill-rule="evenodd" stroke="#000" stroke-linecap="round" stroke-linejoin="round" stroke-miterlimit="2.613" stroke-width="1.44" d="M58.337,115.051c-.766,5.765-.383,11.722,4.982,15.565,4.791,2.306,9.388,2.691,13.411,0-6.706-5.573-11.879-10.186-18.393-15.565Zm105.049,0c.767,5.765.383,11.722-4.981,15.565-4.791,2.306-9.388,2.691-13.413,0C151.7,125.043,156.872,120.43,163.387,115.051Z" data-name="Path 3611" transform="translate(21.926 43.465)"/><path fill-rule="evenodd" stroke="#000" stroke-linecap="round" stroke-linejoin="round" stroke-miterlimit="2.613" stroke-width=".576" d="M61.724,117.426c-.413,3.114-.207,6.33,2.689,8.4,2.586,1.246,5.07,1.454,7.243,0C68.036,122.821,65.242,120.332,61.724,117.426Zm95.612,0c.415,3.114.207,6.33-2.689,8.4-2.587,1.246-5.07,1.454-7.243,0C151.026,122.821,153.818,120.332,157.336,117.426Z" data-name="Path 3612" transform="translate(23.258 44.362)"/><path fill-rule="evenodd" d="M91.673,179.967c.767-2.306,2.683-4.8,2.3-7.109a8.034,8.034,0,0,0-8.238-6.728c-3.257.194-7.282,3.267-7.282,6.728,0,2.688,4.6,3.651,6.9,3.651a7.477,7.477,0,0,0,5.94-2.5c1.341-1.346.383,3.845.383,5.958Zm22.953,0c-.766-2.306-2.681-4.8-2.3-7.109a8.035,8.035,0,0,1,8.239-6.728c3.256.194,7.28,3.267,7.28,6.728,0,2.688-4.6,3.651-6.9,3.651a7.477,7.477,0,0,1-5.94-2.5C113.668,172.663,114.625,177.855,114.625,179.967Z" data-name="Path 3613" transform="translate(29.639 62.758)"/><path fill="none" stroke="#000" stroke-linecap="round" stroke-linejoin="round" stroke-miterlimit="2.613" stroke-width="1.44" d="M125.948,184.526c-6.7-2.691-13.22-3.651-23.183-3.651s-16.477.96-23.184,3.651" data-name="Path 3614" transform="translate(30.065 68.332)"/><path fill="none" stroke="#000" stroke-linecap="round" stroke-linejoin="round" stroke-miterlimit="2.613" stroke-width="2.225" d="M142.743,168.076c-9.2-7.685-21.842-11.338-36.4-11.338s-27.207,3.651-36.4,11.338" data-name="Path 3615" transform="translate(26.421 59.214)"/></svg>