<svg xmlns="http://www.w3.org/2000/svg" width="589.398" height="255.403" viewBox="0 0 589.398 255.403"><g data-name="utah jazz" transform="translate(.003)"><path fill="#fff" d="M497.46,224.926,558.666,84.882H275.053l-11.838,26.951L254.9,84.882H198.23s-37.53,85.386-48.36,110.07a77.621,77.621,0,0,0,1.763-15.364v-2.015c4.03-9.571,37.278-85.638,44.078-101h155.66L384.871,0H199.994l-60.7,139.036a75.541,75.541,0,1,0-2.015,84.63l-12.846,29.721h30.981L173.8,211.576h34.759l12.594,41.811H547.835l12.342-28.462ZM185.889,182.862l8.312-18.891,5.541,18.891Zm108.559,32.744L263.466,113.093h76.067C316.864,164.223,303.011,195.96,294.447,215.606Zm117.374,9.319H376.055l48.612-111.581h36.018C434.491,173.039,419.882,206.287,411.822,224.926Z" data-name="Path 3845"/><path fill="#0d2240" d="M2.16,87.24a71.519,71.519,0,0,0,21.41,47.6,66.577,66.577,0,0,0,23.173-47.6Z" data-name="Path 3846" transform="translate(2.378 95.874)"/><path fill="#ffa400" d="M39.324,87.24A74.288,74.288,0,0,1,14.64,139.127a71.753,71.753,0,0,0,41.811,15.868V87.24Z" data-name="Path 3847" transform="translate(16.093 95.874)"/><path fill="#0d2240" d="M2.16,109.56H46.742A67.317,67.317,0,0,0,23.569,61.2,71.7,71.7,0,0,0,2.16,109.56Z" data-name="Path 3848" transform="translate(2.378 67.257)"/><path fill="#ffa400" d="M14.64,67.72a72.992,72.992,0,0,1,24.684,52.39H56.2V51.6A73.657,73.657,0,0,0,14.64,67.72Z" data-name="Path 3849" transform="translate(16.093 56.707)"/><path fill="#0d2240" d="M93.182,87.24H48.6a66.577,66.577,0,0,0,23.173,47.6A72.7,72.7,0,0,0,93.182,87.24Z" data-name="Path 3850" transform="translate(53.414 95.874)"/><path fill="#2b5134" d="M54.568,87.24H37.44v67.5a68.551,68.551,0,0,0,41.811-15.868A72.235,72.235,0,0,1,54.568,87.24Z" data-name="Path 3851" transform="translate(41.149 95.874)"/><path fill="#2b5134" d="M79.251,67.72A73.729,73.729,0,0,0,37.44,51.6v68.51H54.568A72.992,72.992,0,0,1,79.251,67.72Z" data-name="Path 3852" transform="translate(41.149 56.707)"/><path fill="#0d2240" d="M149.482,2.16,86.513,146.737a79.772,79.772,0,0,0-14.861-20.654,67.779,67.779,0,0,0-23.173,48.36H93.314L138.9,69.663H272.4l29.47-67.5Z" data-name="Path 3853" transform="translate(53.282 2.374)"/><path fill="#2b5134" d="M172.434,69.663,201.9,2.16H189.31l-29.47,67.5Z" data-name="Path 3854" transform="translate(175.663 2.374)"/><path fill="#0d2240" d="M155.846,202.038h53.146L161.136,42.6H132.422L62.4,202.038H83.558s7.808-17.883,18.387-41.811h41.308ZM110.508,140.58c5.289-11.838,10.579-24.432,15.868-36.27l11.083,36.27Z" data-name="Path 3855" transform="translate(68.579 46.816)"/><path fill="#2b5134" d="M157.335,185.918l7.3-16.876L126.354,42.6H113.76Z" data-name="Path 3856" transform="translate(125.023 46.816)"/><path fill="#0d2240" d="M255.27,182.391,316.728,42.6H227.311l-8.564,19.394h36.27C236.379,104.31,193.56,201.786,193.56,201.786H332.092l8.564-19.394Z" data-name="Path 3857" transform="translate(212.72 46.816)"/><path fill="#2b5134" d="M184.314,173.576,241.49,42.6H228.9L171.72,173.576Z" data-name="Path 3858" transform="translate(188.719 46.816)"/><path fill="#2b5134" d="M242.154,173.576,299.33,42.6H286.736L229.56,173.576Z" data-name="Path 3859" transform="translate(252.283 46.816)"/><path fill="#0d2240" d="M267.064,42.6H136.844L128.28,61.994h77.074C186.715,104.31,143.9,201.786,143.9,201.786H256.233l8.312-19.394H205.858Z" data-name="Path 3860" transform="translate(140.98 46.816)"/><path fill="#0d2240" d="M207.128,59.336H190.756L215.944,2.16H203.6L177.407,61.1c-2.015,4.534,0,8.312,4.786,8.312h24.18a14.858,14.858,0,0,0,12.09-8.312l26.2-58.939h-12.09Z" data-name="Path 3861" transform="translate(194.115 2.374)"/><path fill="#0d2240" d="M263.625,2.16H221.058l-4.534,10.327h16.624L207.96,69.663h12.09l25.188-57.176h13.853Z" data-name="Path 3862" transform="translate(228.546 2.374)"/><path fill="#0d2240" d="M265.718,19.036l-7.3,29.47H246.828ZM279.32,2.16H267.23l-45.59,67.5h11.334l6.8-10.327H255.9l-2.267,10.327h12.09Z" data-name="Path 3863" transform="translate(243.579 2.374)"/><path fill="#0d2240" d="M305.635,2.16,293.042,30.622H276.669L289.263,2.16H276.921L247.2,69.663h12.09l12.594-28.714h16.624L275.914,69.663H288l29.721-67.5Z" data-name="Path 3864" transform="translate(271.669 2.374)"/></g></svg>