<svg xmlns="http://www.w3.org/2000/svg" width="448.398" height="465.525" data-name="dallas mavericks" viewBox="0 0 448.398 465.525"><path fill="#fff" d="M432.134,238.942c2.6-6.288,12.359-30.356,12.359-30.356l-41.2,22.767c-.217.217-12.359,6.722-29.705,14.311a601.885,601.885,0,0,0,24.068-73.07c14.527-55.291,22.333-116.219,22.55-118.821l3.252-24.5s-77.624,21.466-85,23.417C310.928,19.514,268.43,0,223.981,0,179.1,0,136.6,19.731,109.063,53.122c-7.589-2.168-85.213-23.851-85.213-23.851l3.252,24.5c0,.867,8.239,63.313,23.417,119.471A665.244,665.244,0,0,0,74.8,243.929c-18.43-8.023-34.042-15.178-34.475-15.395L2.168,210.321s9.107,22.984,11.709,29.271c-.65,0-13.877-5.2-13.877-5.2l12.793,34.258v-.217c.867,2.6,6.288,17.129,47.485,127.927l5.854,15.178s9.107-3.036,11.925-3.9c2.168,6.071,8.239,22.116,8.239,22.116l16.7-8.456c12.576-6.5,39.9-17.563,61.8-21.032,26.236,35.776,46.618,54.423,47.7,55.074l11.275,10.191,11.058-10.191c1.084-.867,21.683-20.165,47.268-54.857a167.127,167.127,0,0,1,56.158,18.864l16.262,8.89,7.155-16.912a30.726,30.726,0,0,1,1.735-4.336c1.3.217,9.107,3.035,9.107,3.035l6.071-15.178c1.084-3.036,27.537-64.4,52.905-123.808L448.4,231.57C448.613,231.57,432.134,238.942,432.134,238.942Z" data-name="Path 3993"/><path d="M399.867,220.286a418.654,418.654,0,0,1-45.533,20.6,598.185,598.185,0,0,0,30.139-87.164C399,98.43,406.806,36.418,407.023,35.767l1.735-14.527-14.094,3.9S220.986,73.061,216,74.579c-4.987-1.3-190.807-53.122-190.807-53.122l1.951,14.527c0,.65,8.023,62.446,23.2,118.387C59.668,188.2,70.292,214.432,80.7,239.15c-24.935-9.757-49.653-21.466-49.87-21.683L8.28,206.843l9.107,22.984c22.116,55.291,33.391,85.646,47.7,124.241L83.3,403.287l9.757-4.987c14.744-7.372,44.883-19.3,68.3-22.333,26.67,37.294,47.919,56.375,49,57.242l6.5,6.071,6.5-6.071c1.084-.867,22.55-21.249,48.786-57.242,27.32,2.819,50.737,13.877,62.663,20.382l9.757,5.2,4.12-9.974c10.841-26.236,64.4-158.066,65.048-159.367l10.408-25.585Z" data-name="Path 3994" transform="translate(6.681 17.138)"/><path fill="#fff" d="M416.186,222.411c-.434.217-43.365,18.43-78.491,27.1,13.66-31.44,25.585-59.844,36.86-101.691,14.527-54.857,22.116-116.435,22.333-117.086l.434-4.337-4.12,1.084S214.1,76.92,212.587,77.354C211.286,76.92,30.02,26.4,30.02,26.4l.434,4.337c.217.65,8.239,62.229,23.2,117.52,9.974,36.427,21.466,63.964,32.741,90.416,0,0,1.951,4.77,3.686,8.89-30.356-7.589-71.553-22.116-71.986-22.333l-5.854-1.951,2.168,5.637c18,47.919,27.32,73.5,37.077,100.824l19.731,54.64,2.6-.867a565.81,565.81,0,0,1,86.947-18.43C187,402.81,211.286,424.059,211.5,424.275l1.951,1.518,1.951-1.518a413.186,413.186,0,0,0,50.3-58.977c23.2,1.518,66.782,11.492,83.261,17.78l2.6,1.084,1.084-2.6C363.5,355.542,419.439,227.4,419.873,226.313l2.819-6.722Z" data-name="Path 3995" transform="translate(9.876 21.302)"/><path fill="#c4ced4" d="M317,254.171l2.385-5.2c15.178-34.909,27.1-62.446,38.6-106.245C370.119,96.538,377.708,45.584,379.66,30.84c-8.023,2.168-177.147,48.786-177.147,48.786l-.867.217S34.039,33.225,25.8,31.057c2.168,14.961,9.757,65.915,22.55,112.533,9.757,35.993,21.249,63.1,32.307,89.549l8.023,19.3,63.964,103.209,1.084,1.518c21.9,32.09,42.5,52.038,48.786,57.676,6.071-5.637,26.019-25.585,48.569-57.242l.867-1.3Z" data-name="Path 3996" transform="translate(20.818 24.884)"/><path d="M63.952,213.681c-1.735-2.385-9.107-14.094-9.107-33.608v-1.735a126.261,126.261,0,0,1-7.806-43.582c0-36.21,15.611-68.951,40.763-92.8a144.282,144.282,0,0,1,196.444,0,126.57,126.57,0,0,1,40.98,92.8,120.005,120.005,0,0,1-6.288,38.595,121.961,121.961,0,0,1-19.948,67.433,13.713,13.713,0,0,1-2.6,1.951h-.217c-.217.217-.217.217-.217.65,0,0-.434,1.518-.867,2.819l.434-.217-.65.867a131.811,131.811,0,0,1-106.678,53.339C130.3,300.411,81.3,263.985,63.952,213.681Z" data-name="Path 3997" transform="translate(37.956 2.711)"/><path fill="#007dc5" d="M406.427,145.888c-.867.217-88.465,37.945-189.072,37.511C128.89,182.965,28.5,145.237,27.632,144.8L6.6,136.781l7.589,20.165c0,.65,0,.65,47.485,127.927l3.469,9.107,9.324-2.819a487.887,487.887,0,0,1,142.671-22.116c61.362,0,114.918,12.576,137.034,20.165l9.324,3.036,3.686-9.107c1.518-3.469,32.524-75.889,53.122-124.024l10.191-23.634Z" data-name="Path 3998" transform="translate(5.325 109.316)"/><path fill="#fff" d="M397.9,147.96l-8.89,3.252s-19.731,7.372-19.948,7.372a39.825,39.825,0,0,0-13.66,7.155,33.815,33.815,0,0,0-5.637,6.5,5.212,5.212,0,0,0,.434-1.735l2.819-7.372-7.589,2.168-18,4.77c-1.735.434-14.094,2.819-17.78,3.686l-4.12.65L284.5,178.1c-1.084,0-9.107,1.518-13.443,5.637a31.03,31.03,0,0,0-2.385,3.252l1.3-7.155-5.421.65L247.642,182l-.65,4.337a10.016,10.016,0,0,0-1.518-1.518c-3.252-2.385-8.673-2.385-10.191-2.168l-24.935.65-20.165-.217a20.08,20.08,0,0,0-11.709,4.337c-.65.65-1.084,1.518-1.735,2.168v-3.9l-.217-3.469s-20.382-1.951-21.032-1.951l-24.718-3.036,1.084,5.421.217,1.518c-5.637-6.5-14.311-8.673-14.744-8.89-.217,0-25.369-5.637-25.369-5.637l1.735,6.5,1.084,4.77a27.651,27.651,0,0,0-2.168-3.686,29.034,29.034,0,0,0-14.094-10.625c-6.288-2.168-18.864-5.2-19.3-5.2l-7.155-1.735c-6.5-2.819-21.032-7.372-25.8-9.107l-8.023-2.6,3.036,8.023L62.906,268.3s16.479-4.553,17.346-4.77c0,0,17.129-4.12,18.43-4.336.65-.217,18-3.252,18-3.252v-.217c4.77-.65,14.311-2.168,15.178-2.168.867-.217,9.107-1.518,13.877-1.951l17.346-1.735c1.735-.217,7.372-.65,10.408-3.252a8.119,8.119,0,0,0,2.6-2.819l.217,4.77,20.6-.65c.867-.217,6.288-.65,9.757-4.12a9.434,9.434,0,0,0,1.3-1.518l-.217,5.421s15.828.434,16.7.434l18.647.434,13.443,1.084,17.129,1.951a22.982,22.982,0,0,0,12.142-2.385c.434-.434.867-.65,1.3-1.084l-1.3,4.987,17.346,3.036v-.217c.65.217,12.793,2.385,15.611,2.819l1.735.65c.434,0,9.107,2.168,15.611,1.3,8.023-.867,16.262-7.372,19.948-15.828L373.4,205.2C373.618,204.335,397.9,147.96,397.9,147.96Z" data-name="Path 3999" transform="translate(14.718 119.386)"/><path d="M143.04,228.3l10.841.867,10.408-60.928-13.877,1.3Z" data-name="Path 4000" transform="translate(115.416 135.75)"/><path d="M180.975,175.408l-5.2,21.683,13.443-.217L198.321,165l-21.032,3.469s-7.589,1.3-11.058,4.77c-4.77,4.77-5.854,13.443-5.854,13.443l-8.456,45.533,13.443,1.518A19.284,19.284,0,0,0,175.337,232c3.252-1.518,5.2-5.2,6.288-8.456s4.337-16.262,4.337-16.262H173.6l-2.819,13.01a13.144,13.144,0,0,1-2.168,4.987,6.619,6.619,0,0,1-5.637,2.168l8.89-40.546a35.16,35.16,0,0,1,3.469-8.456,6.7,6.7,0,0,1,5.637-3.036Z" data-name="Path 4001" transform="translate(122.582 133.135)"/><path d="M190.449,202.338l11.492-36.86-11.925,2.6L169.2,240.065l9.324,1.3,9.757-30.572,2.819-.217s1.951.65,1.951,2.385a12.817,12.817,0,0,1-.867,3.9l-8.239,25.369,10.841,2.168,9.107-26.453a17.626,17.626,0,0,0,1.084-6.5,12.317,12.317,0,0,0-2.168-5.854s2.168,0,5.2-3.036c3.036-2.819,3.036-5.2,3.686-7.372.867-2.168,13.01-35.342,13.01-35.342l-15.828,3.9-9.107,29.705a16.606,16.606,0,0,1-2.168,5.2c-1.518,2.168-2.6,3.036-3.469,3.036A12.994,12.994,0,0,1,190.449,202.338Z" data-name="Path 4002" transform="translate(136.524 128.972)"/><path d="M231.123,172.2l-10.191,27.32,13.877-.65,19.948-46.834L234.809,159.2a40.511,40.511,0,0,0-12.359,6.5,55.441,55.441,0,0,0-10.191,14.311c-1.084,2.6-5.637,12.793-6.288,16.045-.867,3.252-7.589,21.249-7.589,21.249h15.828l-6.722,18a19.893,19.893,0,0,1-3.469,7.372,10.364,10.364,0,0,1-6.288,3.686l8.89-22.984h-9.757L186.24,252a46.087,46.087,0,0,0,13.877,1.518c6.288-.651,13.443-5.637,16.7-13.443,3.469-7.589,14.744-33.825,14.744-33.825l-18.864,1.084,5.854-16.7s3.9-9.757,6.722-13.01a22.585,22.585,0,0,1,5.854-5.421Z" data-name="Path 4003" transform="translate(150.274 122.678)"/><path d="M21.96,151.56,62.506,260.407l11.925-3.469L44.293,168.906s4.553.434,8.456,7.372a72.777,72.777,0,0,1,6.722,16.479c1.084,4.336,20.165,63.1,20.165,63.1l12.142-2.819-23.2-77.407s2.819,0,5.854,5.2a49.128,49.128,0,0,1,4.337,9.54l17.78,61.8,11.709-2.385L93.3,192.54s-3.469-10.191-7.155-15.395A23.334,23.334,0,0,0,74,167.822c-5.854-1.951-18.864-5.421-18.864-5.421l1.951,5.854a38.618,38.618,0,0,0-8.456-6.938C45.377,159.366,21.96,151.56,21.96,151.56Z" data-name="Path 4004" transform="translate(17.719 122.291)"/><path d="M84.493,201.989l-6.5-28.187a15.736,15.736,0,0,1,6.071,3.036c2.385,2.168,3.036,8.239,3.036,8.239l3.252,16.912Zm13.443,34.692,10.191-1.3-8.673-45.317S97.5,180.089,94.9,175.97c-4.553-6.722-14.094-9.324-14.094-9.324L62.16,162.96l19.3,76.323,11.492-1.735-7.155-28.621h6.722Z" data-name="Path 4005" transform="translate(50.156 131.489)"/><path d="M83.4,166.8l13.01,65.048,13.66-1.518s6.5-.217,8.239-1.735A9.714,9.714,0,0,0,122,221.44L120.477,170.7l-13.443-1.3,4.77,47.918s.434,4.337-1.735,6.5a4.372,4.372,0,0,1-3.9,1.518l-6.938-56.808Z" data-name="Path 4006" transform="translate(67.294 134.588)"/><path d="M108.865,226.9l16.262-.65a13.767,13.767,0,0,0,7.372-3.036,14.515,14.515,0,0,0,3.252-7.155l.217-9.107H124.91l.217,9.107a6.071,6.071,0,0,1-1.3,4.337c-1.084,1.084-4.77,1.084-4.77,1.084v-18.43h16.912l.434-5.421H118.839V181.582a4.2,4.2,0,0,1,1.3-3.469,7.5,7.5,0,0,1,4.987-1.084v16.479h11.709l1.518-23.634-19.514-.434a15.353,15.353,0,0,0-8.673,3.252c-4.12,3.686-3.469,12.142-3.469,12.142Z" data-name="Path 4007" transform="translate(86.061 136.718)"/><path d="M145.468,178.453l-.867,14.311a5.188,5.188,0,0,1-.867,2.819,3.641,3.641,0,0,1-1.735,1.3l-3.9-.217,1.084-21.032,2.819-.217a4.3,4.3,0,0,1,2.385.65C145.468,176.5,145.468,178.453,145.468,178.453Zm10.841-6.938c-2.168-2.168-7.372-1.951-7.372-1.951l-21.249.65-2.168,55.941,10.624.217,1.3-22.984s3.469-1.084,5.2,1.3a5.049,5.049,0,0,1,.867,3.252l-1.3,18.43,10.408.65,1.951-18.647a10.81,10.81,0,0,0-.434-5.637,5.872,5.872,0,0,0-3.252-2.819s1.518,0,3.686-2.385a10.309,10.309,0,0,0,2.385-6.288l1.3-13.01C158.044,178.236,158.694,173.9,156.309,171.514Z" data-name="Path 4008" transform="translate(101.28 136.812)"/><path d="M166.277,225.861l13.226-3.252-13.443-1.3c-.65,0-13.226-1.084-19.514-1.084l-6.288-18.864-2.168,6.288c-.217.434-3.036,8.239-4.553,12.576-7.372,0-17.129.867-17.346.867l-14.311,1.518,13.877,3.036c4.337.867,13.01,3.9,13.66,7.589-1.084,4.337-3.9,11.925-3.9,11.925L122.7,252.1s15.178-10.624,17.346-11.925c2.168,1.3,16.912,11.709,16.912,11.709s-6.071-17.563-6.5-19.081C151.967,230.631,159.556,227.379,166.277,225.861Z" data-name="Path 4009" transform="translate(82.205 162.474)"/><path fill="#fff" d="M137.177,227.548c1.084-3.686,7.372-6.5,12.359-8.239-4.987-.434-11.275-.867-14.527-.867h-.65s-2.6-7.155-3.9-10.841c-1.084,3.252-2.819,8.022-3.469,10.191l-.217.867H125.9c-3.469,0-8.456.217-12.142.434,4.337,1.951,9.54,4.77,10.191,8.89v.65c-.65,2.385-1.951,6.5-3.036,9.324,3.469-2.6,9.757-6.938,9.757-6.938s6.722,4.553,10.191,6.938c-1.518-3.686-3.686-9.757-3.686-9.757Z" data-name="Path 4010" transform="translate(91.791 167.509)"/><path fill="#fff" d="M51,131.681C51,63.164,110.193,7.44,182.83,7.44S314.66,63.164,314.66,131.681c0,68.3-58.977,124.024-131.83,124.024C110.193,255.706,51,199.981,51,131.681Z" data-name="Path 4011" transform="translate(41.151 6.003)"/><path d="M83.115,42.377l5.421-4.553c3.686-2.819,4.77-6.722,2.819-9.107-2.6-3.252-6.722-2.168-11.058,1.084L75.96,33.487Zm-.434-9.757L82.9,32.4c1.735-1.3,3.036-1.518,4.12-.217.867,1.084.217,2.6-1.3,3.686l-.217.434Z" data-name="Path 4012" transform="translate(61.291 21.587)"/><path d="M100.461,28.075l3.9-1.735,1.084,1.084,5.637-2.385-9.54-8.239L95.69,18.968l-.65,12.576,5.637-2.168Zm-.217-3.036-.217-3.469v-.217a5.748,5.748,0,0,0,1.084,1.3l1.3,1.518Z" data-name="Path 4013" transform="translate(76.686 13.556)"/><path d="M113.28,13.25l5.637-.65.867,7.589,4.77-.434.434,3.686-10.408,1.084Z" data-name="Path 4014" transform="translate(91.404 10.167)"/><path d="M131.838,12.6l5.854.867-1.3,7.589,4.77.65-.65,3.686L130.32,23.875Z" data-name="Path 4015" transform="translate(105.153 10.167)"/><path d="M152.162,26.964l3.9,1.735-.217,1.518,5.637,2.6-.65-12.793L154.98,17.64l-9.54,8.239,5.637,2.6Zm1.951-1.951,2.385-2.819v.217c0,.65-.217.867-.217,1.518l-.217,1.951Z" data-name="Path 4016" transform="translate(117.353 14.233)"/><path d="M166.309,31.938l.217.434a9.1,9.1,0,0,0,1.951,3.036c.434.434,1.3.867,1.518.434s-.217-1.084-.434-1.3l-.867-.867c-1.518-1.735-2.385-3.469-1.3-4.987,1.735-1.951,5.421-1.084,8.023,1.084a18.316,18.316,0,0,1,3.252,3.9l-3.036,1.3a6.091,6.091,0,0,0-2.168-2.6c-.217-.434-1.084-.868-1.3-.434s.217.867.65,1.3l.65.867c1.735,1.735,2.385,3.686,1.084,5.2-1.735,1.951-5.2.867-7.806-1.3a13.243,13.243,0,0,1-3.9-4.553Z" data-name="Path 4017" transform="translate(131.393 22.269)"/><path d="M293.076,87.232c-.867-.65-2.6-1.735-2.6-1.735a2.6,2.6,0,0,1-.867-.867,13.56,13.56,0,0,0-.867-3.036,129.313,129.313,0,0,0-42.5-35.343,20.16,20.16,0,0,0-5.637-1.518,1.659,1.659,0,0,1-1.084-.434,14.126,14.126,0,0,0-4.987-3.252,132.162,132.162,0,0,0-50.087-9.757,126.527,126.527,0,0,0-15.828,1.084l6.938-9.324c-27.32-.867-47.051,20.6-47.051,20.6a144.313,144.313,0,0,0-18.864,10.408,30.9,30.9,0,0,0-18.43,16.7C87.525,73.572,80.37,83.112,80.37,83.112A41.842,41.842,0,0,0,75.6,86.8a51.314,51.314,0,0,0-12.576,24.284.8.8,0,0,0-.217.65c-.217.65-.217,1.518-.434,2.385-.217,1.735-.65,3.252-.867,4.987l.217-.217a.95.95,0,0,1-.217.65,68.847,68.847,0,0,0-2.385,8.239C58.9,128.862,55,140.137,55,140.137h0c-9.757,34.258,3.252,54.857,5.421,58.109,17.346,50.3,66.349,86.3,123.808,86.3A131.521,131.521,0,0,0,290.908,231.2a10.1,10.1,0,0,0,.867-3.252,1.5,1.5,0,0,1,.65-1.084c1.735-.867,2.385-1.518,2.385-1.735A121.963,121.963,0,0,0,314.759,157.7,120.531,120.531,0,0,0,293.076,87.232Z" data-name="Path 4018" transform="translate(41.486 18.579)"/><path fill="#fff" d="M110.486,60.232c.217-.434.65-.65.867-.867l.65-.65h.217a46.456,46.456,0,0,1,1.518-11.709c11.925-16.479,31.44-20.815,31.44-20.815,2.385-.867.867.217.867.217-12.359,13.877-11.058,25.152-11.058,25.152l11.925,42.715S137.372,90.8,130,76.06c-3.469,29.922,24.935,54.206,24.935,54.206,1.084,1.084-.867-.217-.867-.217-6.938-3.469-15.178-11.058-17.346-13.01.434,2.385,14.311,71.336,14.527,71.769a4.5,4.5,0,0,0,.434,1.3l4.553-11.709,4.12,34.909c-18.213,16.7-37.294,10.191-38.378,9.757a11.26,11.26,0,0,1,.65,1.084s15.611,30.356,79.141,27.32c0,0,1.518,0,1.3.217a.671.671,0,0,0-.434.217,15.1,15.1,0,0,1-3.036.65c-76.54,20.382-116.219-44.666-117.953-47.485a66.931,66.931,0,0,1-6.288-11.058c0-.217,0-.65.217-.217,0,0,8.023,8.239,31.223,10.408h.217c-17.78-19.514-25.369-33.825-26.453-35.993,0,0-2.168-3.252-4.77-12.359,0,0,.217-.434.217,0,.867,1.735,6.938,10.408,14.094,12.359-6.071-9.757-9.974-25.152-10.408-27.32,8.239,11.492,22.984,12.359,22.984,12.359a.212.212,0,0,0-.217-.217v.217C78.4,129.182,83.6,103.163,93.357,84.3a103.673,103.673,0,0,1,17.129-24.068Z" data-name="Path 4019" transform="translate(60.807 20.861)"/><path fill="#c4ced4" d="M141.708,166,125.88,182.484l19.514-14.961L135.2,132.831,139.757,91.2l-7.806,39.679Z" data-name="Path 4020" transform="translate(101.57 73.588)"/><path fill="#c4ced4" d="M132.48,100.808a1.644,1.644,0,0,0,.867-.434,14.4,14.4,0,0,0,4.337-3.469,22.551,22.551,0,0,0,6.288-16.7A43.967,43.967,0,0,0,141.8,67.2C141.587,73.054,139.852,94.52,132.48,100.808Z" data-name="Path 4021" transform="translate(106.896 54.222)"/><path fill="#c4ced4" d="M138.012,51.21c5.421-8.239,14.527-8.89,18.43-8.89a29.573,29.573,0,0,0-9.107-1.518,26.023,26.023,0,0,0-9.323,1.518q-2.6.976-3.252,1.3a66.171,66.171,0,0,1,3.252,7.589Z" data-name="Path 4022" transform="translate(108.735 32.918)"/><path fill="#c4ced4" d="M142.048,72.162l.217-.217Zm6.722-4.553a.212.212,0,0,1,.217.217v2.385c0,17.78-4.553,37.294-6.5,44.232a102.137,102.137,0,0,0,8.673-41.631,91.27,91.27,0,0,0-1.3-15.611,43.324,43.324,0,0,0-.867-4.553c-1.735,13.443-6.938,19.514-6.938,19.514l-.217.217c-.217,0-.217,0-.434-.217a84.8,84.8,0,0,0-18.864-22.984,52.481,52.481,0,0,0-9.974-6.938c16.045,34.692,20.815,61.362,22.116,70.252v-3.036a186.042,186.042,0,0,0-3.686-32.09c-1.735-9.324-3.686-16.045-3.686-16.045v-.434h.434c7.155,5.637,12.359,21.466,13.01,24.5a42.971,42.971,0,0,0,4.77-9.54c1.3-4.12,2.6-8.023,2.6-8.023Z" data-name="Path 4023" transform="translate(90.823 34.083)"/><path fill="#c4ced4" d="M57.844,139.715c0,16.479,2.819,33.608,17.129,55.724,13.66,28.4,38.378,43.582,50.087,49.436,3.9,1.735,6.288,2.819,6.288,2.819A119,119,0,0,0,182.519,259.4a123.019,123.019,0,0,0,67.433-20.815c3.469-2.385,5.421-3.9,5.421-3.9h0l1.518-1.518c0,.217-.434.434-.65.434l-1.3.867c-25.369,14.744-48.569,19.3-67.65,19.3-29.922,0-49-11.058-49-11.058-63.313-32.958-64.18-90.2-64.18-90.2a.212.212,0,0,1,.217-.217h.434c8.023,15.828,18,21.032,22.333,22.767a7.863,7.863,0,0,0,1.518.65c-18.43-22.984-23.634-42.5-23.634-57.025,0-19.514,9.324-30.356,9.324-30.356l.217-.217a.212.212,0,0,1,.217.217,97.852,97.852,0,0,0-1.735,18,66.3,66.3,0,0,0,2.6,19.3,48.381,48.381,0,0,0,1.951,4.987,97.424,97.424,0,0,1-.867-13.443,105.98,105.98,0,0,1,30.789-74.8c-4.12,1.735-8.89,6.071-12.793,10.191-4.337,4.337-7.806,8.673-7.806,8.673h-.217c-.217,0-.217,0-.217-.217a23.512,23.512,0,0,1,3.252-9.757,40.142,40.142,0,0,0-8.023,11.709A51.413,51.413,0,0,0,88.416,71.2v.217a90.137,90.137,0,0,0-13.66,21.249,68.1,68.1,0,0,0-3.9,10.191c-.217.867-.434,1.3-.434,1.518,0,0,0,.217-.434.217s-.217-.217-.217-.434v-.217a4.726,4.726,0,0,1,.217-1.3c0-8.239,3.469-17.129,4.77-20.6-9.54,10.191-11.925,24.285-11.925,35.343A79.04,79.04,0,0,0,65,136.029a138.842,138.842,0,0,0,2.385,21.032c1.518,6.5,2.6,11.275,2.6,11.275a9.288,9.288,0,0,1,.65,2.168v.217H70.42c-.434,0-.434-.217-.65-.434-.217,0-.217-.217-.434-.65l-.434-.867c-6.938-10.408-10.191-27.32-10.841-31.44a8.9,8.9,0,0,0-.217,2.385Z" data-name="Path 4024" transform="translate(46.666 34.18)"/><path fill="#007dc5" d="M216.37,74.317s-30.789-41.2-88.682-41.2h-1.3a1.127,1.127,0,0,0-.867.434c0,.434.434.65.867.867A105.789,105.789,0,0,1,139.4,46.563v.217l.217-.217a21.967,21.967,0,0,1,3.686-1.3,39.8,39.8,0,0,1,9.974-1.3,38.928,38.928,0,0,1,18.647,4.77c-3.036,1.518-17.346,8.673-20.6,17.129l.217.217s14.527,13.01,44.449,13.01A99.575,99.575,0,0,0,211.6,78a9.29,9.29,0,0,0,2.6-.434c1.3-.434,2.819-.867,2.819-2.385a4.044,4.044,0,0,1-.65-.867Z" data-name="Path 4025" transform="translate(101.28 26.724)"/><path fill="#007dc5" d="M151.527,87.913c-.217-.217-.434-.217-.434,0-.217,0-.217.217,0,.217a7.821,7.821,0,0,1,.867,1.084c1.735,2.385,4.987,8.023,4.987,18a62.735,62.735,0,0,1-6.722,26.886,48.4,48.4,0,0,0-1.084-9.54c-1.084-5.638-3.036-11.492-7.589-12.793h-.434l-2.6,24.5,9.757,36.427-19.3,15.611c-.217,0-.217,0-.217.217a.212.212,0,0,0,.217.217,74.477,74.477,0,0,0,20.382,2.385,122.457,122.457,0,0,0,24.5-2.6A4.64,4.64,0,0,0,176.9,185.7a125.064,125.064,0,0,0,2.168-24.068C179.28,140.168,174.727,109.6,151.527,87.913Z" data-name="Path 4026" transform="translate(103.894 70.804)"/><path fill="#007dc5" d="M171.587,197.151c-.434-.217-.434-.65-.434-1.3v-1.084a60.851,60.851,0,0,0,1.518-8.023,121.416,121.416,0,0,0,1.518-20.165c0-21.9-5.2-52.472-29.705-76.106a.757.757,0,0,0-.434-.217l-.65-.65a.758.758,0,0,1,.217-.434h.434a2.9,2.9,0,0,1,1.084.217,27.532,27.532,0,0,1,11.058,6.938c-.217-1.084-.65-3.469-1.3-6.5A41.907,41.907,0,0,0,147.3,75.511l-.65-.65c-.217-.434-.434-.434-.434-.867V73.56h.434c.217,0,.434.217,1.084.65,1.518.65,63.1,30.356,65.265,90.2v1.084a8.389,8.389,0,0,1-2.168,6.071c-.65.65-15.178,18.864-36.86,25.585a2.748,2.748,0,0,1-1.3.434C172.455,197.584,171.8,197.584,171.587,197.151Z" data-name="Path 4027" transform="translate(115.707 59.354)"/><path fill="#007dc5" d="M222.806,164.39c-1.3-49.436-48.135-83.044-71.553-96.921a106.7,106.7,0,0,0-13.01-6.938L137.16,60.1h1.518a19.716,19.716,0,0,1,14.744,6.722,23.185,23.185,0,0,0-1.084-6.288l-.434-.65.65.217c6.722,2.6,15.178,3.469,23.634,3.469A160.816,160.816,0,0,0,198.3,61.831c5.854-.65,9.757-1.518,9.757-1.518h.867c3.469,0,4.553,1.951,4.553,2.168,8.023,8.89,17.78,29.271,19.514,53.773.217,3.036.217,6.071.217,8.89,0,18.43-3.9,32.741-6.722,38.6-1.084,2.168-1.951,3.252-2.819,3.252C223.023,166.775,222.806,165.908,222.806,164.39Z" data-name="Path 4028" transform="translate(110.672 48.316)"/><path d="M117.352,29.377l.217-.217c-.65.217-13.443,4.12-17.129,23.2,0,0,0,.434.217,0,1.084-1.735,4.987-7.806,8.673-6.071v-.434C109.547,44.338,110.848,37.616,117.352,29.377Z" data-name="Path 4029" transform="translate(81.043 23.529)"/><path d="M119.044,146.121c-2.819-5.421-20.382-43.8-20.382-43.8-5.421,1.951-12.142-2.6-12.142-2.6,8.673,22.767,29.055,42.715,32.307,46.4.434.65.434.434.434.434C119.044,146.554,119.044,146.121,119.044,146.121Z" data-name="Path 4030" transform="translate(69.811 80.462)"/><path d="M96.611,56.7c-15.828,35.993,19.731,50.954,20.382,51.171l-1.951-8.456-1.084-4.553a13.263,13.263,0,0,0-2.6-1.084c-.217,0-.434-.217-.65-.434a1.656,1.656,0,0,1-1.084-.434C94.009,84.67,95.527,64.939,96.611,58.434v-.65a3.816,3.816,0,0,0,.217-1.3h0C96.828,56.049,96.828,56.483,96.611,56.7Z" data-name="Path 4031" transform="translate(74.681 45.425)"/><path fill="#c4ced4" d="M108.922,132.917,106.32,87.6l15.395,50.52S116.728,126.195,108.922,132.917Z" data-name="Path 4032" transform="translate(85.788 70.683)"/><path fill="#c4ced4" d="M122.392,82.795,110.684,40.08v.867l3.252,27.1a2.631,2.631,0,0,1,.217,1.084c0,1.518-.867,3.469-8.239-4.12-.217-.434-.434-.434-.434-.434C112.852,79.542,122.392,82.795,122.392,82.795Z" data-name="Path 4033" transform="translate(85.11 32.34)"/><path fill="#c4ced4" d="M100.8,80.337a14.054,14.054,0,0,1-1.518-6.288,13.484,13.484,0,0,1,4.987-10.191l.217-.217a69.663,69.663,0,0,1,0-10.841c-3.9,5.637-12.142,19.3-2.168,29.922-.217-.217-.434-.434-.434-.65a20,20,0,0,1-1.084-1.735Z" data-name="Path 4034" transform="translate(78.73 42.603)"/><path d="M110.349,80.916a57.773,57.773,0,0,1-6.722-21.9V58.8A13.648,13.648,0,0,0,98.64,69.208a18.015,18.015,0,0,0,1.3,6.071,7.8,7.8,0,0,1,1.084,1.951c.217,0,.434.434.434.65l.65.65a13.254,13.254,0,0,0,9.107,3.9,4.807,4.807,0,0,1-.867-1.518Z" data-name="Path 4035" transform="translate(79.591 47.445)"/><path fill="#c4ced4" d="M116.036,115.955s-7.589-1.951-6.938,13.66a3.082,3.082,0,0,1,.434-1.3c2.168-5.2,4.337-7.155,6.288-7.372,1.518,0,2.819,1.518,3.686,3.469a55.306,55.306,0,0,1,2.385,7.155,36.129,36.129,0,0,1,1.3,6.288,22.375,22.375,0,0,1,.217,4.12v.217C123.625,140.456,126.877,118.99,116.036,115.955Z" data-name="Path 4036" transform="translate(87.997 93.499)"/><path d="M123.487,139.832h0c-.217-1.951-.217-3.252-.434-4.337-.217-1.735-.65-3.9-1.084-6.071a36.9,36.9,0,0,0-2.6-7.372c-.867-1.951-2.168-3.252-3.686-3.252-1.951,0-3.9,2.168-6.288,7.155a4.02,4.02,0,0,1-.434,1.518l3.9,8.023S115.031,113.6,123.487,139.832Z" data-name="Path 4037" transform="translate(87.918 95.858)"/></svg>